<?xml version="1.0" encoding="UTF-8"?>
<svg version="1.1" xmlns="http://www.w3.org/2000/svg" width="512" height="512">
<path d="M0 0 C1.66534078 -0.00604311 3.330676 -0.01382213 4.99600142 -0.02318513 C9.56721149 -0.04376232 14.13810815 -0.03937733 18.70934403 -0.03082395 C23.6413265 -0.02589252 28.57323321 -0.04391401 33.50518799 -0.05889893 C43.16575216 -0.08440624 52.82620519 -0.08797862 62.48679737 -0.0832984 C70.33934202 -0.07973304 78.19185292 -0.08322921 86.04439354 -0.09174728 C87.16180382 -0.09293766 88.2792141 -0.09412804 89.4304853 -0.09535449 C91.70048526 -0.09777798 93.97048521 -0.10020625 96.24048515 -0.10263924 C117.53220407 -0.12439571 138.82385964 -0.12006282 160.11558213 -0.10786955 C179.59210556 -0.09753219 199.06842889 -0.12003842 218.54491273 -0.15806599 C238.54416105 -0.19681481 258.5433147 -0.21333611 278.54260081 -0.20581949 C289.77033775 -0.20199398 300.99790441 -0.20698462 312.22561073 -0.23524857 C321.78459145 -0.25906818 331.34329709 -0.26189534 340.90228156 -0.23766823 C345.77856455 -0.22588451 350.6543443 -0.22370763 355.53059387 -0.24767303 C359.9974644 -0.26937112 364.46341098 -0.26320983 368.93023809 -0.23514967 C370.54325082 -0.22985008 372.15633573 -0.23460715 373.76927767 -0.25062139 C383.0036726 -0.33591811 390.67976097 0.11307418 397.8881073 6.52139282 C402.68743061 12.56943844 404.03736666 17.66314954 404.02232838 25.33329296 C404.02468061 26.14140034 404.02703284 26.94950773 404.02945635 27.78210321 C404.03615851 30.5130994 404.03568776 33.24404814 404.03527832 35.97505188 C404.03857618 37.94359482 404.04230159 39.91213708 404.0464198 41.88067847 C404.05645667 47.30840881 404.0601593 52.73612809 404.06280911 58.1638664 C404.06670715 64.01065186 404.0762858 69.85742852 404.08502197 75.70420837 C404.10386514 89.16495145 404.11404438 102.62569443 404.12248265 116.08644753 C404.12710955 123.40347084 404.13297121 130.72049314 404.13873863 138.03751564 C404.15583739 160.13289939 404.17027198 182.22828294 404.17748737 204.32367229 C404.17796213 205.75286454 404.17843802 207.18205678 404.17891503 208.61124902 C404.17915141 209.32000582 404.17938779 210.02876263 404.17963133 210.75899691 C404.18083254 214.34996157 404.18204798 217.94092622 404.18327332 221.53189087 C404.18351347 222.24453095 404.18375362 222.95717102 404.18400104 223.69140625 C404.19189479 246.79932835 404.2153279 269.90719913 404.24782926 293.01509882 C404.28212179 317.44104883 404.30183797 341.86696882 404.30513161 366.2929433 C404.30720556 379.60985878 404.31608343 392.92670599 404.34159279 406.24359703 C404.36326321 417.58278368 404.37136822 428.92187659 404.36162601 440.2610816 C404.35707076 446.04835331 404.35903869 451.83543148 404.37838745 457.62267685 C404.3959443 462.9196138 404.39508225 468.21621493 404.37949016 473.51315508 C404.3771027 475.43042657 404.38149623 477.34772086 404.39331881 479.26495739 C404.40839173 481.87047613 404.39879748 484.4747979 404.38309193 487.08028698 C404.39331413 487.82529045 404.40353634 488.57029392 404.41406831 489.33787325 C404.32505326 496.10044447 401.89943889 501.12953904 397.5756073 506.27139282 C389.27994386 513.21659942 382.22427618 513.09629144 371.7762146 513.04278564 C370.11087382 513.04882876 368.4455386 513.05660777 366.78021318 513.06597078 C362.20900311 513.08654796 357.63810645 513.08216297 353.06687057 513.07360959 C348.1348881 513.06867816 343.20298139 513.08669965 338.27102661 513.10168457 C328.61046244 513.12719188 318.95000941 513.13076427 309.28941723 513.12608404 C301.43687257 513.12251868 293.58436168 513.12601485 285.73182106 513.13453293 C284.61441078 513.13572331 283.4970005 513.13691368 282.3457293 513.13814013 C280.07572934 513.14056363 277.80572939 513.1429919 275.53572945 513.14542489 C254.24401053 513.16718135 232.95235496 513.16284847 211.66063247 513.1506552 C192.18410904 513.14031783 172.70778571 513.16282407 153.23130187 513.20085163 C133.23205355 513.23960046 113.2328999 513.25612175 93.23361379 513.24860513 C82.00587685 513.24477963 70.77831019 513.24977027 59.55060387 513.27803421 C49.99162315 513.30185382 40.43291751 513.30468098 30.87393304 513.28045388 C25.99765005 513.26867016 21.1218703 513.26649327 16.24562073 513.29045868 C11.7787502 513.31215676 7.31280362 513.30599547 2.84597651 513.27793531 C1.23296378 513.27263573 -0.38012113 513.2773928 -1.99306307 513.29340704 C-11.227458 513.37870376 -18.90354637 512.92971146 -26.1118927 506.52139282 C-30.91121601 500.47334721 -32.26115206 495.3796361 -32.24611378 487.70949268 C-32.24846601 486.9013853 -32.25081824 486.09327792 -32.25324175 485.26068243 C-32.25994391 482.52968624 -32.25947316 479.7987375 -32.25906372 477.06773376 C-32.26236159 475.09919083 -32.26608699 473.13064856 -32.2702052 471.16210717 C-32.28024207 465.73437683 -32.2839447 460.30665755 -32.28659451 454.87891924 C-32.29049255 449.03213378 -32.3000712 443.18535713 -32.30880737 437.33857727 C-32.32765054 423.8778342 -32.33782978 410.41709121 -32.34626805 396.95633812 C-32.35089495 389.6393148 -32.35675661 382.3222925 -32.36252403 375.00527 C-32.37962279 352.90988626 -32.39405738 330.8145027 -32.40127277 308.71911335 C-32.40174753 307.28992111 -32.40222342 305.86072887 -32.40270044 304.43153663 C-32.40293681 303.72277982 -32.40317319 303.01402302 -32.40341673 302.28378873 C-32.40461794 298.69282408 -32.40583338 295.10185942 -32.40705872 291.51089478 C-32.40729887 290.7982547 -32.40753902 290.08561462 -32.40778644 289.35137939 C-32.41568019 266.24345729 -32.43911331 243.13558651 -32.47161466 220.02768682 C-32.50590719 195.60173681 -32.52562337 171.17581683 -32.52891701 146.74984235 C-32.53099096 133.43292687 -32.53986884 120.11607966 -32.56537819 106.79918861 C-32.58704861 95.46000197 -32.59515362 84.12090905 -32.58541141 72.78170405 C-32.58085616 66.99443233 -32.58282409 61.20735416 -32.60217285 55.4201088 C-32.6197297 50.12317185 -32.61886765 44.82657071 -32.60327556 39.52963056 C-32.6008881 37.61235907 -32.60528163 35.69506478 -32.61710421 33.77782825 C-32.63217713 31.17230951 -32.62258288 28.56798775 -32.60687733 25.96249866 C-32.61709953 25.2174952 -32.62732174 24.47249173 -32.63785371 23.70491239 C-32.54883866 16.94234117 -30.12322429 11.9132466 -25.7993927 6.77139282 C-17.50372926 -0.17381378 -10.44806158 -0.05350579 0 0 Z M-17.1118927 20.52139282 C-17.60385653 23.37995678 -17.7860616 25.6413346 -17.7410984 28.49406433 C-17.74836561 29.29524795 -17.75563281 30.09643157 -17.76312023 30.92189348 C-17.78142824 33.61772461 -17.76398853 36.31214336 -17.74681091 39.00796509 C-17.75256982 40.95563009 -17.76050937 42.90328968 -17.77044713 44.85093784 C-17.79137533 50.21167802 -17.78097807 55.57197479 -17.76551604 60.93271685 C-17.75423091 66.71058736 -17.77165114 72.48838014 -17.78541565 78.26623535 C-17.80768291 89.58847407 -17.8028313 100.91054734 -17.78835244 112.23279262 C-17.77707393 121.43220681 -17.77552329 130.63157454 -17.78097153 139.83099365 C-17.78173769 141.13884309 -17.78250386 142.44669253 -17.78329324 143.79417378 C-17.78489182 146.45080147 -17.78651288 149.10742914 -17.7881562 151.7640568 C-17.80251955 175.98137015 -17.78762746 200.19859976 -17.76144321 224.41589881 C-17.7377146 246.53021345 -17.73983771 268.64438413 -17.76374817 290.75869751 C-17.790513 315.59607019 -17.80105053 340.43336209 -17.78568685 365.27074718 C-17.78409406 367.91776211 -17.7825222 370.56477704 -17.78097153 373.21179199 C-17.78020015 374.51427354 -17.77942877 375.81675509 -17.77863402 377.15870577 C-17.77431159 386.35018789 -17.78161526 395.54161904 -17.79336929 404.73309326 C-17.8073727 415.9299918 -17.80363976 427.12671501 -17.77696557 438.32359338 C-17.76379842 444.03964787 -17.75872448 449.75540973 -17.77521133 455.47146225 C-17.7900637 460.69979141 -17.78200055 465.92755554 -17.75532357 471.15583313 C-17.74971857 473.05144752 -17.75262396 474.94710924 -17.76470251 476.84269345 C-17.77982387 479.41205602 -17.76440309 481.97946233 -17.7410984 484.54872131 C-17.75280423 485.29140806 -17.76451007 486.0340948 -17.77657062 486.7992872 C-17.70843286 490.53630744 -17.18802332 492.41489402 -14.9966768 495.48035944 C-11.47660396 497.97087031 -9.61289389 498.14769467 -5.32614136 498.15059853 C-4.65327414 498.15786573 -3.98040692 498.16513293 -3.28714979 498.17262036 C-1.02772349 498.19089877 1.23001119 498.17350429 3.48942566 498.15631104 C5.12360726 498.16207117 6.75778239 498.17001156 8.39194393 498.17994726 C12.8861931 498.20085889 17.3799128 498.19048595 21.8741641 498.17501616 C26.71951643 498.16372418 31.56477638 498.18115466 36.41011047 498.19491577 C45.90353586 498.21717574 55.39676385 498.2123347 64.89019704 498.19785257 C72.60410641 498.18657117 80.31796036 498.18502466 88.03187561 498.19047165 C89.1287976 498.19123781 90.22571958 498.19200398 91.35588163 498.19279336 C93.58409732 498.19439195 95.812313 498.19601302 98.04052866 498.19765632 C118.94582647 498.21192191 139.85101475 498.19550838 160.75629461 498.16865449 C178.70295631 498.14631499 196.64945633 498.1501949 214.59611511 498.17324829 C235.42542592 498.19999198 256.25464067 498.21054853 277.08396626 498.19518697 C279.30409048 498.19359419 281.52421473 498.19202234 283.74433899 498.19047165 C284.83674816 498.18970027 285.92915732 498.18892889 287.0546698 498.18813414 C294.76136923 498.18381285 302.46800786 498.19111294 310.17469788 498.20286942 C319.56367752 498.21687705 328.9524481 498.21313104 338.34140372 498.1864657 C343.13395558 498.17330413 347.92615858 498.16821489 352.71870804 498.18471146 C357.1032837 498.19957572 361.48718611 498.19148152 365.87170041 498.1648237 C367.46045168 498.15922369 369.04925947 498.16211314 370.63797462 498.17420264 C372.79358346 498.18935173 374.94686955 498.17387854 377.10235596 498.15059853 C378.300701 498.14978676 379.49904604 498.148975 380.73370457 498.14813864 C384.96053592 497.30831282 386.39208998 496.01306095 388.8881073 492.52139282 C389.38007113 489.66282887 389.5622762 487.40145105 389.517313 484.54872131 C389.52458021 483.7475377 389.53184741 482.94635408 389.53933483 482.12089217 C389.55764284 479.42506103 389.54020313 476.73064229 389.52302551 474.03482056 C389.52878442 472.08715555 389.53672397 470.13949597 389.54666173 468.1918478 C389.56758993 462.83110762 389.55719267 457.47081085 389.54173064 452.1100688 C389.53044551 446.33219828 389.54786574 440.5544055 389.56163025 434.77655029 C389.58389751 423.45431158 389.5790459 412.13223831 389.56456704 400.80999303 C389.55328853 391.61057884 389.55173789 382.41121111 389.55718613 373.21179199 C389.55795229 371.90394255 389.55871846 370.59609311 389.55950784 369.24861187 C389.56110642 366.59198418 389.56272748 363.9353565 389.5643708 361.27872884 C389.57873415 337.06141549 389.56384206 312.84418588 389.53765781 288.62688683 C389.5139292 266.5125722 389.51605231 244.39840151 389.53996277 222.28408813 C389.5667276 197.44671546 389.57726513 172.60942356 389.56190145 147.77203846 C389.56030866 145.12502354 389.5587368 142.4780086 389.55718613 139.83099365 C389.55641475 138.52851211 389.55564337 137.22603056 389.55484862 135.88407987 C389.55052619 126.69259776 389.55782986 117.50116661 389.56958389 108.30969238 C389.5835873 97.11279385 389.57985436 85.91607064 389.55318017 74.71919227 C389.54001302 69.00313778 389.53493908 63.28737591 389.55142593 57.57132339 C389.5662783 52.34299423 389.55821515 47.1152301 389.53153817 41.88695252 C389.52593317 39.99133812 389.52883856 38.0956764 389.54091711 36.2000922 C389.55603847 33.63072963 389.54061768 31.06332331 389.517313 28.49406433 C389.52901883 27.75137759 389.54072466 27.00869085 389.55278522 26.24349844 C389.48464746 22.5064782 388.96423792 20.62789162 386.7728914 17.56242621 C383.25281856 15.07191533 381.38910849 14.89509097 377.10235596 14.89218712 C376.09305513 14.88128631 376.09305513 14.88128631 375.06336439 14.87016529 C372.80393809 14.85188688 370.54620341 14.86928135 368.28678894 14.88647461 C366.65260734 14.88071448 365.01843221 14.87277408 363.38427067 14.86283839 C358.8900215 14.84192675 354.3963018 14.8522997 349.9020505 14.86776948 C345.05669817 14.87906146 340.21143822 14.86163099 335.36610413 14.84786987 C325.87267874 14.8256099 316.37945075 14.83045094 306.88601756 14.84493308 C299.17210819 14.85621447 291.45825424 14.85776099 283.74433899 14.852314 C282.647417 14.85154783 281.55049502 14.85078166 280.42033297 14.84999228 C278.19211728 14.84839369 275.9639016 14.84677263 273.73568594 14.84512933 C252.83038813 14.83086374 231.92519985 14.84727726 211.01991999 14.87413116 C193.07325829 14.89647065 175.12675827 14.89259075 157.18009949 14.86953735 C136.35078868 14.84279366 115.52157393 14.83223711 94.69224834 14.84759867 C92.47212411 14.84919146 90.25199987 14.85076331 88.03187561 14.852314 C86.93946644 14.85308537 85.84705728 14.85385675 84.7215448 14.8546515 C77.01484537 14.85897279 69.30820674 14.85167271 61.60151672 14.83991623 C52.21253708 14.82590859 42.8237665 14.8296546 33.43481088 14.85631995 C28.64225902 14.86948152 23.85005602 14.87457075 19.05750656 14.85807419 C14.6729309 14.84320992 10.28902849 14.85130412 5.90451419 14.87796195 C4.31576292 14.88356195 2.72695513 14.88067251 1.13823998 14.86858301 C-1.01736886 14.85343391 -3.17065495 14.8689071 -5.32614136 14.89218712 C-6.5244864 14.89299888 -7.72283144 14.89381064 -8.95748997 14.894647 C-13.18432132 15.73447283 -14.61587538 17.0297247 -17.1118927 20.52139282 Z " fill="#000000" transform="translate(70.11189270019531,-0.521392822265625)"/>
<path d="M0 0 C33.58737988 -0.64155669 62.75988913 11.81767826 86.9765625 34.93359375 C109.52294751 58.26220028 119.45046262 88.655142 119.06640625 120.58984375 C118.23748031 150.24582778 104.86947478 178.3853011 83.8515625 199.12109375 C57.01559315 223.62350054 25.55186175 231.53781537 -10.1484375 230.12109375 C-32.25923845 228.48373415 -54.62037937 217.58314462 -71.1484375 203.12109375 C-71.880625 202.53199219 -72.6128125 201.94289062 -73.3671875 201.3359375 C-94.82640206 183.54141275 -107.83604244 155.62316802 -110.9675293 128.2668457 C-113.56697097 97.43487156 -105.86708103 67.31964378 -86.1484375 43.12109375 C-65.72286952 18.93873661 -39.38319483 4.18430495 -7.8984375 0.37109375 C-5.26641675 0.18694213 -2.63663677 0.10140911 0 0 Z M-62.1484375 40.12109375 C-63.09460938 40.99894531 -64.04078125 41.87679687 -65.015625 42.78125 C-80.02569868 57.06258106 -89.45016305 75.07269202 -94.1484375 95.12109375 C-94.51582031 96.63896484 -94.51582031 96.63896484 -94.890625 98.1875 C-100.13694755 124.0238419 -93.43108843 150.37310077 -79.1484375 172.12109375 C-73.80464326 179.94653226 -73.80464326 179.94653226 -66.1484375 185.12109375 C-65.85710937 184.37085938 -65.56578125 183.620625 -65.265625 182.84765625 C-58.13942274 165.05456005 -48.51879769 153.78909633 -32.1484375 144.12109375 C-31.18421875 143.54230469 -30.22 142.96351563 -29.2265625 142.3671875 C-28.54078125 141.95597656 -27.855 141.54476562 -27.1484375 141.12109375 C-27.8084375 140.52296875 -28.4684375 139.92484375 -29.1484375 139.30859375 C-36.37564152 131.99902843 -41.31691868 123.99141641 -44.1484375 114.12109375 C-44.34050781 113.51265625 -44.53257812 112.90421875 -44.73046875 112.27734375 C-47.72000844 96.85467171 -43.13375082 82.33561037 -35 69.27734375 C-28.46101658 60.55869919 -16.66440077 54.69605688 -6.203125 52.50390625 C10.29487282 50.43638223 23.54023938 53.98248543 37.1015625 63.37109375 C47.80379839 74.07332964 52.9497408 86.89803696 53.2265625 101.87109375 C53.18622356 114.67796132 49.02661612 126.91812163 39.84375 136.13671875 C38.23460574 137.53087612 36.55066361 138.83809903 34.8515625 140.12109375 C37.34697991 142.9464138 40.11362297 144.46463095 43.4140625 146.24609375 C58.86466087 155.14698194 68.24497428 168.30132909 73.8515625 185.12109375 C83.32004365 181.62571987 90.04245417 167.78323684 94.20068359 159.16455078 C105.91504837 133.72922234 107.11700761 106.8352759 97.7265625 80.49609375 C92.30127494 66.15482974 84.57031469 54.96821423 73.8515625 44.12109375 C72.86929688 43.03054687 72.86929688 43.03054687 71.8671875 41.91796875 C57.36523326 26.17653124 33.33445586 16.41772026 12.1484375 15.17578125 C11.39046875 15.15773438 10.6325 15.1396875 9.8515625 15.12109375 C8.94921875 15.08242188 8.046875 15.04375 7.1171875 15.00390625 C-18.43311322 14.39556576 -43.33054152 22.59800712 -62.1484375 40.12109375 Z M-23.9296875 79.2578125 C-30.08960298 87.90887027 -32.35408485 96.52765303 -31.1484375 107.12109375 C-28.76844488 117.20580825 -23.56225612 125.06314435 -15.1484375 131.12109375 C-6.07387354 136.32665757 3.32030048 137.92160038 13.7109375 135.4375 C24.6526313 131.34285993 32.28851662 124.0282895 37.2265625 113.49609375 C40.32416017 104.97443265 40.00205123 96.1722099 36.7890625 87.74609375 C32.38193462 78.44903466 26.01490204 72.0381844 16.47265625 68.15234375 C1.61633034 63.1304871 -13.7705829 67.07134273 -23.9296875 79.2578125 Z M-42.92578125 171.08984375 C-49.42419541 179.15912138 -52.75269896 187.81540262 -53.1484375 198.12109375 C-50.6327004 199.58885873 -48.11144768 201.0453161 -45.5859375 202.49609375 C-44.88146484 202.90859375 -44.17699219 203.32109375 -43.45117188 203.74609375 C-39.07193736 206.24851347 -35.05749129 207.94704935 -30.1484375 209.12109375 C-30.07496094 207.65736328 -30.07496094 207.65736328 -30 206.1640625 C-29.92523438 204.89175781 -29.85046875 203.61945313 -29.7734375 202.30859375 C-29.70382813 201.04402344 -29.63421875 199.77945313 -29.5625 198.4765625 C-29.1484375 195.12109375 -29.1484375 195.12109375 -27.1484375 192.12109375 C-21.52211553 191.40664017 -21.52211553 191.40664017 -19.1484375 192.12109375 C-15.68182691 196.19713132 -15.62064013 200.32767253 -15.4609375 205.43359375 C-15.42677734 206.17416016 -15.39261719 206.91472656 -15.35742188 207.67773438 C-15.27550196 209.49167539 -15.21027928 211.30635728 -15.1484375 213.12109375 C-8.79431422 215.4046068 -2.85354868 215.38646485 3.8515625 215.30859375 C5.43324219 215.30762695 5.43324219 215.30762695 7.046875 215.30664062 C12.41545812 215.27636666 17.56332079 215.06005712 22.8515625 214.12109375 C22.88894531 212.95191406 22.92632812 211.78273437 22.96484375 210.578125 C23.0305253 209.029917 23.09697189 207.48174133 23.1640625 205.93359375 C23.18662109 205.16466797 23.20917969 204.39574219 23.23242188 203.60351562 C23.44597951 199.07997665 23.76841189 195.68994617 26.8515625 192.12109375 C29.76580182 191.24393657 31.74949312 191.72718018 34.8515625 192.12109375 C37.27635986 195.7582898 37.23818827 197.97812857 37.4765625 202.30859375 C37.58871094 204.21705078 37.58871094 204.21705078 37.703125 206.1640625 C37.75210938 207.13988281 37.80109375 208.11570313 37.8515625 209.12109375 C46.32599282 206.78331987 53.3663351 202.60371215 60.8515625 198.12109375 C61.03277875 186.8856865 55.71045263 177.05233854 48.5390625 168.68359375 C36.78006714 156.54591888 23.07499471 151.29833649 6.37158203 150.83544922 C-13.51647695 150.60646801 -29.40610617 156.11420366 -42.92578125 171.08984375 Z " fill="#000000" transform="translate(252.1484375,41.87890625)"/>
<path d="M0 0 C0.80505525 -0.00623996 1.6101105 -0.01247993 2.43956137 -0.01890898 C5.14054639 -0.03487982 7.84063406 -0.02221903 10.54162598 -0.00964355 C12.4765933 -0.01506286 14.41155649 -0.02218444 16.34651184 -0.03088379 C21.60474293 -0.04914278 26.86266062 -0.04203893 32.12089729 -0.02936745 C37.61901836 -0.01925315 43.11711227 -0.02862876 48.61523438 -0.03491211 C57.84904812 -0.04219309 67.08273398 -0.03258896 76.31652832 -0.0135498 C86.99800856 0.00821975 97.67918342 0.0011687 108.36065626 -0.02085543 C117.5250814 -0.03899656 126.68941451 -0.04157404 135.8538518 -0.03110075 C141.33020567 -0.02485875 146.80641592 -0.02404962 152.28276062 -0.0372467 C157.43087779 -0.04878582 162.57860055 -0.04081485 167.72667503 -0.01766968 C169.61813387 -0.01237222 171.50962579 -0.01391401 173.40107155 -0.02272034 C175.97917635 -0.03361866 178.55600986 -0.01998219 181.1340332 0 C181.88617017 -0.00892289 182.63830714 -0.01784577 183.41323614 -0.02703905 C186.83286751 0.02452779 188.74361538 0.27003217 191.53157806 2.32093048 C193.78185133 5.52611045 193.61255541 7.68916289 193.0670166 11.50793457 C191.53157806 13.69493866 191.53157806 13.69493866 189.0670166 15.50793457 C186.2901181 15.90083331 183.90959866 16.04879673 181.1340332 16.01586914 C179.92645033 16.02522908 179.92645033 16.02522908 178.69447184 16.03477812 C175.99348681 16.05074896 173.29339914 16.03808817 170.59240723 16.0255127 C168.65743991 16.030932 166.72247671 16.03805358 164.78752136 16.04675293 C159.52929028 16.06501192 154.27137258 16.05790807 149.01313591 16.04523659 C143.51501484 16.03512229 138.01692093 16.0444979 132.51879883 16.05078125 C123.28498508 16.05806223 114.05129922 16.0484581 104.81750488 16.02941895 C94.13602464 16.0076494 83.45484978 16.01470044 72.77337694 16.03672457 C63.6089518 16.0548657 54.4446187 16.05744318 45.28018141 16.04696989 C39.80382753 16.0407279 34.32761728 16.03991876 28.85127258 16.05311584 C23.70315541 16.06465496 18.55543265 16.05668399 13.40735817 16.03353882 C11.51589933 16.02824137 9.62440741 16.02978315 7.73296165 16.03858948 C5.15485686 16.0494878 2.57802334 16.03585133 0 16.01586914 C-0.75213697 16.02479203 -1.50427394 16.03371491 -2.27920294 16.04290819 C-5.69883431 15.99134136 -7.60958218 15.74583697 -10.39754486 13.69493866 C-12.64781813 10.4897587 -12.47852221 8.32670625 -11.9329834 4.50793457 C-8.71776316 -0.071669 -5.20846047 -0.06178995 0 0 Z " fill="#000000" transform="translate(116.9329833984375,400.4920654296875)"/>
<path d="M0 0 C1.16470558 -0.01041829 1.16470558 -0.01041829 2.35294056 -0.02104706 C4.9571834 -0.03935714 7.5605194 -0.02904201 10.16479492 -0.01878357 C12.03079919 -0.02583999 13.89679773 -0.03458384 15.76278687 -0.04489136 C20.83299832 -0.06742498 25.90289821 -0.06443652 30.97314072 -0.05556989 C35.20301472 -0.05046632 39.43282985 -0.05774734 43.66269779 -0.06504196 C53.63903494 -0.08205325 63.61521917 -0.07846231 73.59155273 -0.06175232 C83.89136431 -0.04482389 94.1907523 -0.06067276 104.49051762 -0.0929752 C113.32798689 -0.11964379 122.16532408 -0.12695466 131.00282955 -0.11846012 C136.28360837 -0.11352364 141.56413219 -0.11578563 146.84487915 -0.13624763 C151.80921155 -0.15456223 156.77293293 -0.14869786 161.73723221 -0.12404823 C163.56096718 -0.11902716 165.38474837 -0.12256357 167.2084465 -0.13519669 C169.69484866 -0.15106032 172.17922211 -0.13624205 174.66552734 -0.11352539 C175.75287784 -0.13127898 175.75287784 -0.13127898 176.86219501 -0.14939123 C180.55838597 -0.08058965 182.0697959 0.26935681 184.81196594 2.82736301 C186.33276367 5.5146637 186.33276367 5.5146637 186.33276367 9.1396637 C185.19763368 12.97072742 184.75922082 13.65081684 181.33276367 15.5146637 C178.70956569 15.80529374 176.32526364 15.92419779 173.70349121 15.90234375 C172.93110438 15.90772929 172.15871755 15.91311483 171.36292505 15.91866356 C168.77263146 15.9329807 166.1828462 15.92583032 163.5925293 15.91871643 C161.73637988 15.924418 159.88023398 15.93138143 158.02409363 15.93951416 C152.98078392 15.95748311 147.93764785 15.95627031 142.89431572 15.95057178 C138.68681851 15.94748569 134.47935494 15.95356582 130.27186251 15.95961052 C120.34828689 15.97366607 110.42479734 15.97208555 100.5012207 15.96070862 C90.25599862 15.94922266 80.01103815 15.9633088 69.76585054 15.99010509 C60.97510318 16.0122383 52.18443809 16.01890495 43.39366484 16.01302868 C38.1408636 16.00965265 32.88823014 16.01211715 27.63545227 16.02927971 C22.69746466 16.04470917 17.75986573 16.04083789 12.82189369 16.02197456 C11.00783171 16.01827775 9.19374118 16.02142881 7.37970543 16.03186035 C4.90669653 16.04499756 2.43498829 16.03358863 -0.03796387 16.01586914 C-0.75897325 16.02547415 -1.47998263 16.03507915 -2.22284079 16.04497522 C-5.57737479 15.99538282 -7.38643864 15.72278081 -10.11281586 13.70208836 C-12.38818961 10.50011775 -12.21426944 8.34389549 -11.66723633 4.5146637 C-8.48390787 0.02987021 -5.1404453 -0.05843729 0 0 Z " fill="#000000" transform="translate(116.667236328125,293.48533630371094)"/>
<path d="M0 0 C1.07744605 -0.00445668 1.07744605 -0.00445668 2.17665869 -0.0090034 C4.59569446 -0.01771 7.01468086 -0.01920029 9.43373108 -0.02069092 C11.16312771 -0.02531764 12.89252332 -0.0303421 14.62191772 -0.03573608 C19.3284618 -0.0488746 24.03499161 -0.05530766 28.74155116 -0.05974674 C31.67937269 -0.06267463 34.61719029 -0.06677885 37.55500984 -0.07125092 C46.73924172 -0.08492856 55.92346465 -0.09459438 65.10770601 -0.09845281 C75.7239172 -0.10293688 86.33999984 -0.12049984 96.95617193 -0.1494534 C105.15322159 -0.17103653 113.350235 -0.18115525 121.5473128 -0.18249393 C126.44742395 -0.18354421 131.34741431 -0.18949952 136.24749565 -0.20731354 C140.85461076 -0.2237365 145.46151353 -0.225978 150.06864738 -0.21717453 C151.76219245 -0.21640109 153.45574867 -0.22078701 155.14926529 -0.23063278 C157.45613041 -0.24326094 159.76223302 -0.23752612 162.0690918 -0.22705078 C163.3616133 -0.22851734 164.65413481 -0.2299839 165.98582363 -0.2314949 C169.09803772 0.14044189 169.09803772 0.14044189 171.0124445 1.54231644 C173.01819774 4.49502953 172.63306554 7.72339753 172.09803772 11.14044189 C170.28640505 13.81475679 169.22042695 14.09964548 166.09803772 15.14044189 C163.82671762 15.23910001 161.55255386 15.27548116 159.27909851 15.28088379 C158.58177561 15.28385491 157.88445271 15.28682603 157.16599882 15.28988719 C154.82383433 15.29857527 152.48172096 15.30008252 150.13954163 15.30157471 C148.46250296 15.30620276 146.78546534 15.3112274 145.10842896 15.31661987 C140.54849935 15.32974608 135.98858448 15.33618912 131.42863894 15.34063053 C128.58074908 15.34356057 125.73286326 15.34766522 122.88497543 15.3521347 C113.97732169 15.36580948 105.06967716 15.37547655 96.16201365 15.3793366 C85.87410366 15.3838191 75.58632641 15.40137601 65.29845679 15.43033719 C57.34933658 15.45193916 49.40025377 15.46204006 41.45110452 15.46337771 C36.70184947 15.4644267 31.95271921 15.47035449 27.20349503 15.48819733 C22.73671113 15.50465262 18.27014618 15.50684593 13.80334282 15.49805832 C12.16385119 15.49728661 10.5243479 15.50164827 8.88488579 15.51151657 C6.64664346 15.52419913 4.40918092 15.51838002 2.17094421 15.50793457 C0.91843683 15.50940113 -0.33407055 15.51086769 -1.6245327 15.51237869 C-5.20531384 15.10601626 -7.09728832 14.38238656 -9.90196228 12.14044189 C-10.86525123 8.60838241 -11.28447161 6.25854608 -10.08946228 2.76544189 C-7.4982017 -0.78049364 -4.07885477 0.00938999 0 0 Z " fill="#000000" transform="translate(234.90196228027344,347.85955810546875)"/>
<path d="M0 0 C1.04681941 -0.00445668 1.04681941 -0.00445668 2.11478668 -0.0090034 C4.46472512 -0.01770901 6.81461273 -0.0192002 9.16456604 -0.02069092 C10.84470225 -0.02531771 12.5248374 -0.03034218 14.20497131 -0.03573608 C18.77722214 -0.04887393 23.34945828 -0.05530753 27.92172503 -0.05974674 C30.77579176 -0.06267474 33.62985445 -0.06677898 36.48391914 -0.07125092 C45.40652239 -0.08492838 54.32911642 -0.09459429 63.25172943 -0.09845281 C73.56513954 -0.10293683 83.87841732 -0.12049965 94.19178718 -0.1494534 C102.15529321 -0.17103729 110.11876192 -0.18115529 118.08229691 -0.18249393 C122.84268115 -0.18354416 127.60294105 -0.18949831 132.3632946 -0.20731354 C136.83908746 -0.22373782 141.31466177 -0.22597737 145.79047394 -0.21717453 C147.43564246 -0.21640116 149.08082245 -0.2207861 150.72596169 -0.23063278 C152.96714832 -0.24326323 155.20755033 -0.23752497 157.44873047 -0.22705078 C158.70438025 -0.22851734 159.96003004 -0.2299839 161.25372982 -0.2314949 C164.28785706 0.14044189 164.28785706 0.14044189 166.19040012 1.54231644 C168.21371209 4.48867931 167.82332618 7.7205791 167.28785706 11.14044189 C165.47622439 13.81475679 164.41024629 14.09964548 161.28785706 15.14044189 C159.07984828 15.2388907 156.86893302 15.27547208 154.65873718 15.28088379 C153.98183205 15.28385491 153.30492691 15.28682603 152.60750949 15.28988719 C150.33444232 15.29857368 148.06142781 15.30008238 145.78834534 15.30157471 C144.16056709 15.30620287 142.53278993 15.31122753 140.90501404 15.31661987 C136.47937769 15.32974501 132.05375651 15.33618892 127.62810373 15.34063053 C124.86396867 15.34356075 122.09983777 15.34766543 119.3357048 15.3521347 C110.6896797 15.36580921 102.04366408 15.3754764 93.3976289 15.3793366 C83.41251988 15.38381901 73.42754763 15.40137558 63.44248021 15.43033719 C55.72690363 15.45194052 48.01136558 15.46204014 40.29575908 15.46337771 C35.68623084 15.4644266 31.07683118 15.47035236 26.46733475 15.48819733 C22.13187298 15.50465497 17.79663678 15.50684479 13.46115494 15.49805832 C11.87003984 15.49728673 10.27891273 15.50164664 8.68782806 15.51151657 C6.51526391 15.52420317 4.34350265 15.51837793 2.17094421 15.50793457 C0.95530855 15.50940113 -0.26032711 15.51086769 -1.51280022 15.51237869 C-5.04835497 15.10135586 -6.93529085 14.34777423 -9.71214294 12.14044189 C-10.67543189 8.60838241 -11.09465227 6.25854608 -9.89964294 2.76544189 C-7.33949171 -0.73792295 -4.03550317 0.00956307 0 0 Z " fill="#000000" transform="translate(239.71214294433594,454.85955810546875)"/>
<path d="M0 0 C0.77590485 -0.00525696 1.55180969 -0.01051392 2.35122681 -0.01593018 C4.91794927 -0.02914225 7.48405239 -0.02038807 10.05078125 -0.01025391 C11.83292765 -0.0122743 13.61507324 -0.01518545 15.3972168 -0.01895142 C19.1330553 -0.0233764 22.86867868 -0.01693817 26.60449219 -0.00292969 C31.39657209 0.01416236 36.18814795 0.0043221 40.98020935 -0.01364708 C44.66047981 -0.02448025 48.3406305 -0.02104074 52.02090454 -0.0132637 C53.78797464 -0.0112604 55.55505557 -0.01372553 57.32211304 -0.02070236 C59.79055649 -0.02830926 62.2581802 -0.01672393 64.7265625 0 C65.45912262 -0.00607269 66.19168274 -0.01214539 66.94644165 -0.0184021 C71.880815 0.04362926 71.880815 0.04362926 74.28979492 1.76400757 C75.77824447 4.01601955 76.17082363 5.69377688 76.36328125 8.38818359 C75.73828125 11.07568359 75.73828125 11.07568359 74.36328125 13.38818359 C70.27023946 15.55367258 66.66136857 15.64646606 62.08203125 15.6628418 C61.36756836 15.66795273 60.65310547 15.67306366 59.91699219 15.67832947 C57.56566897 15.69217971 55.2146403 15.69127245 52.86328125 15.68896484 C51.22330619 15.69285377 49.58333213 15.69718884 47.94335938 15.70195007 C44.51038341 15.70940206 41.07751031 15.70912805 37.64453125 15.70385742 C33.24955169 15.69805849 28.85499298 15.71500875 24.46008301 15.7382021 C21.07484484 15.75294553 17.68970795 15.75381041 14.30444336 15.75069237 C12.68415492 15.75120509 11.06386074 15.75643362 9.44360352 15.76650429 C7.17696884 15.77886605 4.91115319 15.77207972 2.64453125 15.76049805 C0.7119043 15.76144218 0.7119043 15.76144218 -1.25976562 15.7624054 C-5.16800669 15.32930817 -7.83732178 14.18758056 -10.63671875 11.38818359 C-11.10634289 4.10900939 -11.10634289 4.10900939 -9.59350586 1.78695679 C-6.60755336 -0.34749631 -3.53621105 -0.02931408 0 0 Z " fill="#000000" transform="translate(115.63671875,347.61181640625)"/>
<path d="M0 0 C1.11755676 -0.01029488 1.11755676 -0.01029488 2.25769043 -0.02079773 C4.72219871 -0.03910932 7.18607301 -0.0352221 9.65063477 -0.02954102 C11.36312569 -0.0341009 13.07561478 -0.0394059 14.7881012 -0.04542542 C18.37850372 -0.05436518 21.96868393 -0.05192382 25.55908203 -0.04199219 C30.16060817 -0.03050413 34.76136674 -0.05070665 39.36279202 -0.07990932 C42.89985532 -0.09825492 46.43673415 -0.09798213 49.97383308 -0.0922718 C51.67030984 -0.09211837 53.36679894 -0.09818079 55.06323051 -0.11056328 C57.43587255 -0.12544027 59.80709008 -0.11482186 62.1796875 -0.09765625 C62.88060013 -0.10732422 63.58151276 -0.11699219 64.30366516 -0.12695312 C67.65034454 -0.07624586 69.39274077 0.20620237 72.09437561 2.24790955 C74.20878679 5.17001847 74.16979346 6.87089309 73.65454102 10.40405273 C71.87469697 13.53996844 71.13145895 14.24508009 67.65454102 15.40405273 C65.36611759 15.5090646 63.07473333 15.55274523 60.78393555 15.56518555 C60.08927185 15.57015045 59.39460815 15.57511536 58.67889404 15.58023071 C56.38170377 15.59483103 54.08458255 15.60165058 51.78735352 15.60717773 C50.18936156 15.61293073 48.59136961 15.61868844 46.99337769 15.62445068 C43.64263589 15.63495445 40.29191805 15.64080127 36.94116211 15.64428711 C32.65152386 15.64977206 28.36220298 15.67380253 24.07266426 15.70225906 C20.77150553 15.72089918 17.47042307 15.72609176 14.16921616 15.72762299 C12.58799376 15.7306467 11.00677263 15.73866578 9.42560196 15.75180817 C7.21146864 15.7688987 4.99810841 15.76698158 2.78393555 15.76049805 C1.52501495 15.76414368 0.26609436 15.76778931 -1.03097534 15.77154541 C-4.90409995 15.34211354 -7.57104056 14.17847115 -10.34545898 11.40405273 C-10.81583581 4.11321201 -10.81583581 4.11321201 -9.28404236 1.80381775 C-6.37810161 -0.29443309 -3.45218016 -0.02210796 0 0 Z " fill="#000000" transform="translate(115.345458984375,454.595947265625)"/>
<path d="M0 0 C1.09324081 -0.0038269 2.18648163 -0.00765381 3.31285095 -0.01159668 C5.6201164 -0.01431468 7.92741272 -0.00696142 10.23461914 0.00976562 C13.76843794 0.03119599 17.3002283 0.00994807 20.83398438 -0.015625 C23.07682741 -0.01298211 25.31966918 -0.00785794 27.5625 0 C29.14853783 -0.01214539 29.14853783 -0.01214539 30.76661682 -0.02453613 C38.03503977 0.0685425 38.03503977 0.0685425 41.38061523 2.34570312 C43.35870442 5.58593265 43.24549847 7.81666696 42.71484375 11.53125 C40.72220922 14.07273523 39.5191502 15.36033334 36.32458496 16.03918457 C34.99699158 16.04395813 34.99699158 16.04395813 33.64257812 16.04882812 C32.63473267 16.06143677 31.62688721 16.07404541 30.58850098 16.08703613 C29.50613159 16.07893921 28.42376221 16.07084229 27.30859375 16.0625 C26.19174194 16.0663269 25.07489014 16.07015381 23.92419434 16.07409668 C21.56387429 16.07681756 19.20352418 16.0694442 16.84326172 16.05273438 C13.228158 16.03132884 9.61504182 16.05253178 6 16.078125 C3.70702686 16.07548176 1.41405495 16.07035686 -0.87890625 16.0625 C-2.50246033 16.07464539 -2.50246033 16.07464539 -4.15881348 16.08703613 C-5.16665894 16.07442749 -6.17450439 16.06181885 -7.21289062 16.04882812 C-8.09795288 16.04564575 -8.98301514 16.04246338 -9.89489746 16.03918457 C-13.0891936 15.36039052 -14.28996233 14.070214 -16.28515625 11.53125 C-16.84765625 8.03125 -16.84765625 8.03125 -16.28515625 4.53125 C-11.85380573 -0.7615385 -6.37097364 -0.04888052 0 0 Z " fill="#000000" transform="translate(364.28515625,400.46875)"/>
<path d="M0 0 C0.88779648 -0.01268417 1.77559296 -0.02536835 2.69029236 -0.03843689 C3.64658035 -0.03550125 4.60286835 -0.03256561 5.58813477 -0.02954102 C7.06577049 -0.03740379 7.06577049 -0.03740379 8.57325745 -0.04542542 C10.65706438 -0.0518502 12.74090757 -0.05050273 14.82470703 -0.04199219 C18.01408491 -0.03348848 21.20166858 -0.06222772 24.39086914 -0.09399414 C26.41495714 -0.09560637 28.43904832 -0.09502821 30.46313477 -0.09204102 C31.89453041 -0.10889198 31.89453041 -0.10889198 33.35484314 -0.12608337 C39.93033707 -0.05684887 39.93033707 -0.05684887 43.19384766 2.21630859 C45.25853631 5.44691363 45.12738234 7.65666346 44.59204102 11.40405273 C43.17578125 13.58740234 43.17578125 13.58740234 40.59204102 15.40405273 C37.31533688 16.01474819 34.07788355 15.9882699 30.75219727 15.97045898 C29.79308945 15.97665756 28.83398163 15.98285614 27.84580994 15.98924255 C25.8192547 15.99634019 23.79264116 15.9931677 21.76611328 15.98046875 C18.66858301 15.96661553 15.57408116 16.00065943 12.47680664 16.03881836 C10.50610278 16.0397697 8.53539514 16.03790994 6.56469727 16.03295898 C5.64060562 16.04621719 4.71651398 16.0594754 3.76441956 16.07313538 C-0.75877547 16.0077964 -2.80001194 15.85422723 -6.53125 13.09130859 C-8.40795898 10.40405273 -8.40795898 10.40405273 -8.40795898 6.77905273 C-6.92183983 1.76340058 -5.26273804 0.03642209 0 0 Z " fill="#000000" transform="translate(362.407958984375,293.595947265625)"/>
</svg>
